<?xml version="1.0" encoding="utf-8"?>
<svg viewBox="-43.807 243.3326 953.986 175.4101" xmlns="http://www.w3.org/2000/svg">
  <path fill="#3EADB0" opacity="1.000000" stroke="none" d="M 860.117 280.401 C 868.745 280.465 876.897 280.465 885.556 280.465 C 885.556 270.227 885.898 260.148 885.247 250.134 C 885.128 248.292 880.984 246.713 878.608 244.946 C 888.934 244.946 899.517 244.946 910.13 244.946 C 910.058 245.384 910.074 245.914 909.95 245.948 C 902.846 247.947 902.723 248.035 902.705 255.834 C 902.669 272.322 902.656 288.81 902.714 305.298 C 902.734 310.808 901.264 317.378 910.179 318.031 C 899.596 318.031 889.013 318.031 878.397 318.031 C 878.449 317.661 878.423 317.131 878.543 317.096 C 885.883 314.936 885.889 314.939 885.895 306.796 C 885.901 298.973 885.896 291.15 885.896 282.898 C 876.99 282.898 868.266 282.898 859.028 282.898 C 859.028 292.756 858.688 302.836 859.335 312.853 C 859.454 314.702 863.566 316.293 865.911 318.061 C 855.582 318.061 844.999 318.061 834.379 318.061 C 834.464 317.609 834.456 317.088 834.583 317.053 C 841.685 315.084 841.884 314.854 841.892 307.187 C 841.908 290.699 841.897 274.211 841.896 257.723 C 841.896 248.469 841.895 248.469 833.053 244.996 C 844.951 244.996 855.561 244.996 867.338 244.996 C 858.696 248.545 858.695 248.545 858.693 257.707 C 858.692 263.702 858.63 269.699 858.736 275.693 C 858.764 277.246 859.325 278.79 860.117 280.401 Z"/>
  <path fill="#AB8E65" opacity="1.000000" stroke="none" d="M 359.985 417.292 C 349.42 417.431 339.254 417.431 329.088 417.431 C 328.766 416.949 328.443 416.467 328.121 415.985 C 337.546 416.042 336.57 409.798 336.593 404.195 C 336.622 396.887 336.6 389.578 336.6 381.867 C 327.384 381.867 318.514 381.867 309.23 381.867 C 309.23 391.499 308.811 401.13 309.531 410.675 C 309.705 412.993 313.627 415.028 315.644 417.015 C 306.035 417.015 295.568 417.015 283.926 417.015 C 292.578 413.432 292.591 413.432 292.597 404.605 C 292.607 388.277 292.62 371.949 292.591 355.622 C 292.576 347.311 292.268 346.921 285.04 344.096 C 295.51 344.096 305.98 344.096 316.45 344.096 C 307.188 345.487 309.106 352.62 309.01 358.597 C 308.9 365.38 308.984 372.166 308.984 379.221 C 318.291 379.221 327.058 379.221 336.03 379.221 C 336.03 369.305 336.374 359.375 335.74 349.508 C 335.613 347.533 331.759 345.799 329.691 344.011 C 339.554 344.011 350.021 344.011 360.488 344.011 C 351.941 345.168 353.003 351.57 352.994 357.287 C 352.968 373.448 352.984 389.609 352.988 405.77 C 352.989 410.805 353.148 415.735 360.12 415.895 C 360.218 415.897 360.297 416.716 359.985 417.292 Z"/>
  <path fill="#3BACAF" opacity="1.000000" stroke="none" d="M 626.814 246.484 C 623.83 244.815 625.368 244.534 627.096 244.524 C 634.256 244.482 641.416 244.501 648.576 244.498 C 651.25 244.497 653.923 244.498 657.022 245.247 C 648.142 245.967 649.016 252.189 649.004 257.788 C 648.97 273.441 648.976 289.094 649 304.746 C 649.009 310.467 648.001 316.838 656.526 318.046 C 646.044 318.046 635.561 318.046 625.079 318.046 C 633.822 316.959 632.526 310.434 632.567 304.754 C 632.618 297.475 632.579 290.196 632.579 282.694 C 623.218 282.694 614.456 282.694 605.312 282.694 C 605.312 292.568 604.934 302.346 605.605 312.05 C 605.753 314.198 609.609 316.09 611.597 317.949 C 602.095 317.949 591.61 317.949 581.125 317.949 C 590.494 316.58 588.493 309.354 588.539 303.424 C 588.658 287.939 588.591 272.452 588.574 256.966 C 588.565 248.361 588.448 248.216 581.032 245.044 C 591.516 245.044 602 245.044 612.484 245.044 C 603.168 246.425 605.106 253.569 605.015 259.548 C 604.912 266.334 604.992 273.123 604.992 280.2 C 614.225 280.2 622.982 280.2 631.967 280.2 C 631.967 270.197 632.133 260.142 631.758 250.107 C 631.711 248.852 628.808 247.702 626.814 246.484 Z"/>
  <path fill="#3FADB0" opacity="1.000000" stroke="none" d="M 224.211 317.005 C 209.658 321.489 196.182 320.712 184.404 310.748 C 173.336 301.384 169.818 282.403 175.785 266.323 C 180.964 252.364 193.714 243.582 208.932 243.491 C 228.399 243.376 241.799 253.064 245.598 270.001 C 250.239 290.69 242.028 308.962 224.211 317.005 M 191.804 267.235 C 191.501 274.85 190.24 282.587 191.179 290.046 C 192.026 296.775 194.256 303.806 197.693 309.631 C 204.299 320.827 216.525 320.182 223.18 308.969 C 224.358 306.985 225.323 304.827 226.065 302.64 C 229.727 291.849 230.256 280.689 228.115 269.671 C 226.942 263.633 224.627 257.424 221.296 252.284 C 215.103 242.727 203.642 243.035 197.53 252.658 C 194.922 256.765 193.758 261.789 191.804 267.235 Z"/>
  <path fill="#AC9068" opacity="1.000000" stroke="none" d="M 402.704 373.432 C 405.687 356.434 416.805 345.271 432.953 342.701 C 448.832 340.173 464.044 346.834 471.043 359.699 C 481.066 378.123 476.394 411.248 447.895 417.564 C 419.371 423.885 397.518 402.762 402.704 373.432 M 443.853 345.59 C 435.839 342.997 429.213 345.385 425.311 353.573 C 417.476 370.014 417.379 387.01 423.933 403.873 C 426.69 410.965 431.323 416.943 440.051 416.406 C 448.452 415.889 452.309 409.546 454.701 402.591 C 459.427 388.849 459.514 374.826 455.402 360.915 C 453.586 354.771 450.416 349.289 443.853 345.59 Z"/>
  <path fill="#3EADB0" opacity="1.000000" stroke="none" d="M 140.01 303.596 C 130.465 317.345 117.198 321.344 101.764 318.941 C 86.285 316.531 76.852 307.2 73.449 291.905 C 68.525 269.775 80.29 248.629 100.056 244.56 C 114.831 241.519 128.699 243.672 138.422 256.208 C 148.51 269.216 148.063 284 142.542 298.885 C 141.97 300.429 140.993 301.824 140.01 303.596 M 127.267 266.814 C 125.197 261.953 123.841 256.602 120.913 252.33 C 114.287 242.664 103.028 243.087 96.791 252.992 C 94.616 256.445 92.469 260.458 92.084 264.388 C 91.138 274.067 90.587 283.879 91.102 293.573 C 91.481 300.703 94.333 307.516 99.564 312.861 C 106.147 319.588 115.182 319.325 120.622 311.722 C 123.36 307.895 125.437 303.314 126.689 298.764 C 129.503 288.533 129.518 278.062 127.267 266.814 Z"/>
  <path fill="#AC9068" opacity="1.000000" stroke="none" d="M 517.893 387.174 C 517.288 378.149 517.779 369.782 521.741 361.896 C 529.418 346.616 545.8 339.523 564.503 343.501 C 580.189 346.837 590.326 359.583 591.005 376.568 C 591.676 393.351 586.722 407.305 570.72 415.011 C 552.889 423.6 521.896 418.569 517.893 387.174 M 547.427 346.271 C 545.361 348.392 542.562 350.162 541.347 352.692 C 532.457 371.204 531.878 390.03 541.814 408.196 C 548.168 419.811 561.318 419.621 567.466 407.93 C 570.626 401.923 572.414 394.847 573.284 388.057 C 574.87 375.68 573.807 363.385 566.832 352.449 C 562.086 345.007 556.013 343.037 547.427 346.271 Z"/>
  <path fill="#3EADB0" opacity="1.000000" stroke="none" d="M 804.361 265.992 C 804.084 267.504 803.808 268.576 803.532 269.649 C 803.033 269.646 802.534 269.644 802.035 269.642 C 801.435 267.185 800.85 264.724 800.233 262.271 C 797.69 252.159 789.885 246.185 779.498 246.486 C 770.771 246.738 765.979 252.298 762.911 259.558 C 758.936 268.964 758.204 278.957 759.172 289.001 C 759.679 294.271 760.572 299.607 762.143 304.648 C 764.98 313.75 771.975 318.318 780.557 317.484 C 785.815 316.973 788.429 314.453 788.617 309.18 C 788.764 305.03 788.737 300.84 788.343 296.71 C 787.708 290.044 786.753 289.271 780.124 288.47 C 779.502 288.395 778.902 288.139 778.311 287.127 C 788.667 287.127 799.024 287.127 809.979 287.127 C 803.927 290.113 805.467 295.496 805.386 300.335 C 805.287 306.354 805.363 312.375 805.363 318.654 C 804.013 318.265 803.505 318.26 803.431 318.077 C 800.643 311.277 800.504 311.077 793.971 314.783 C 784.568 320.117 774.725 320.725 764.541 318.049 C 748.367 313.798 739.423 300.272 740.167 280.866 C 741.315 250.965 766.274 239.387 786.77 244.676 C 791.293 245.843 795.366 248.748 800.137 251.094 C 801.094 248.774 802.007 246.558 802.921 244.341 C 803.402 244.425 803.882 244.508 804.362 244.592 C 804.362 251.578 804.362 258.565 804.361 265.992 Z"/>
  <path fill="#40AEB1" opacity="1.000000" stroke="none" d="M 452.801 278.5 C 452.801 271.002 452.834 264.003 452.792 257.005 C 452.742 248.51 452.555 248.272 445.063 244.484 C 449.193 244.484 453.398 244.976 457.435 244.363 C 462.735 243.558 465.126 246.645 467.879 250.163 C 478.449 263.669 489.207 277.028 499.902 290.436 C 500.598 291.309 501.358 292.131 502.991 294.023 C 502.991 284.774 502.991 276.733 502.991 268.692 C 502.991 265.86 503.008 263.027 502.986 260.194 C 502.903 249.673 502.668 249.331 493.207 245.072 C 499.832 245.072 506.456 245.072 513.08 245.072 C 503.354 248.385 505.836 256.695 505.757 263.747 C 505.574 280.074 505.699 296.405 505.699 312.734 C 505.699 314.529 505.699 316.324 505.699 317.928 C 501.869 319.274 499.69 318.086 497.553 315.348 C 485.055 299.331 472.381 283.449 459.763 267.526 C 458.736 266.231 457.675 264.964 456.237 263.202 C 455.843 264.342 455.413 265.009 455.412 265.677 C 455.38 278.84 455.553 292.006 455.343 305.165 C 455.231 312.147 457.769 316.575 466.029 316.821 C 465.691 317.235 465.352 317.65 465.013 318.064 C 458.445 318.064 451.876 318.064 445.308 318.064 C 453.74 315.113 452.612 307.936 452.759 301.494 C 452.931 293.999 452.801 286.498 452.801 278.5 Z"/>
  <path fill="#AC9068" opacity="1.000000" stroke="none" d="M 96.979 411.443 C 100.746 412.976 104.167 414.914 107.773 415.361 C 112.816 415.988 117.506 414.257 119.785 409.189 C 122.116 404.004 121.218 398.813 117.433 394.751 C 114.292 391.38 110.405 388.67 106.692 385.875 C 103.104 383.174 99.179 380.913 95.645 378.148 C 88.652 372.676 85.197 365.58 87.421 356.645 C 89.672 347.597 96.766 343.655 105.108 342.899 C 110.691 342.393 116.738 343.362 122.113 345.103 C 128.75 347.254 128.542 347.897 132.887 343.236 C 132.887 351.481 132.887 359.314 132.887 367.148 C 132.359 367.249 131.831 367.35 131.302 367.452 C 130.818 365.764 130.21 364.102 129.87 362.386 C 127.894 352.405 121.41 345.692 113.484 345.479 C 108.816 345.353 104.803 346.645 102.76 351.182 C 100.653 355.863 101.261 360.558 104.86 364.153 C 108.008 367.297 111.845 369.76 115.427 372.458 C 120.605 376.359 126.336 379.68 130.933 384.169 C 142.356 395.324 138.254 411.749 123.096 416.697 C 114.436 419.524 105.75 419.475 97.249 415.944 C 91.141 413.407 91.167 413.346 87.016 417.89 C 87.016 408.247 87.016 399.121 87.016 389.06 C 90.561 397.145 93.638 404.164 96.979 411.443 Z"/>
  <path fill="#AD9169" opacity="1.000000" stroke="none" d="M 195.723 413.716 C 177.342 403.015 175.358 377.333 183.462 361.531 C 188.555 351.599 196.686 345.616 207.646 343.256 C 218.573 340.903 228.342 343.249 237.263 350.818 C 238.551 347.773 239.455 345.637 240.359 343.5 C 240.701 343.563 241.044 343.625 241.387 343.688 C 241.387 352.182 241.387 360.676 241.387 369.17 C 240.798 369.299 240.209 369.428 239.62 369.557 C 239.055 366.963 238.461 364.375 237.932 361.773 C 236.325 353.866 231.562 348.784 223.979 346.324 C 215.756 343.658 207.662 346.199 203.917 353.931 C 195.301 371.718 195.17 389.906 203.929 407.741 C 207.273 414.55 213.554 417.392 221.02 416.386 C 228.445 415.385 234.024 411.293 236.771 404.189 C 237.952 401.136 238.152 397.71 238.879 394.473 C 239.116 393.421 239.612 392.428 239.989 391.409 C 240.452 391.506 240.916 391.604 241.379 391.701 C 241.379 400.207 241.379 408.713 241.379 417.219 C 241.069 417.326 240.758 417.433 240.448 417.541 C 239.592 415.609 238.736 413.678 237.512 410.918 C 224.157 420.506 210.284 420.91 195.723 413.716 Z"/>
  <path fill="#AC9068" opacity="1.000000" stroke="none" d="M 639.987 371.5 C 639.987 365.672 639.997 360.344 639.984 355.016 C 639.964 346.89 639.918 346.835 632.514 344.123 C 643.318 344.123 654.123 344.123 664.945 344.123 C 664.912 344.361 664.934 344.904 664.817 344.936 C 656.812 347.136 656.801 347.133 656.798 355.73 C 656.791 372.879 656.783 390.028 656.802 407.177 C 656.811 414.892 657.445 415.511 664.957 415.527 C 676.07 415.552 682.362 410.425 685.723 398.604 C 686.325 396.487 686.919 394.368 687.517 392.25 C 688.025 392.331 688.534 392.413 689.042 392.494 C 689.042 400.645 689.042 408.795 689.042 417.105 C 670.467 417.105 651.508 417.105 632.548 417.105 C 641.885 416.141 639.91 409.16 639.96 403.468 C 640.053 392.979 639.987 382.489 639.987 371.5 Z"/>
  <path fill="#3EADB0" opacity="1.000000" stroke="none" d="M 321.888 294.506 C 318.92 302.552 315.951 310.599 312.982 318.645 C 312.416 318.691 311.85 318.738 311.284 318.784 C 302.45 297.801 293.617 276.818 284.783 255.836 C 284.405 255.848 284.028 255.861 283.651 255.873 C 283.555 257.34 283.378 258.807 283.376 260.274 C 283.354 273.433 283.312 286.592 283.382 299.75 C 283.423 307.372 281.577 316.109 292.994 318.105 C 286.427 318.105 279.86 318.105 273.293 318.105 C 281.485 315.241 280.71 308.314 280.762 301.985 C 280.887 286.829 280.845 271.671 280.788 256.513 C 280.758 248.389 280.434 248.035 272.193 245.317 C 274.038 244.912 275.001 244.527 275.967 244.518 C 281.796 244.461 287.655 244.84 293.447 244.372 C 297.613 244.036 299.241 245.808 300.649 249.317 C 306.657 264.291 312.907 279.17 319.738 294.276 C 320.901 294.482 321.395 294.494 321.888 294.506 Z"/>
  <path fill="#3EADB0" opacity="1.000000" stroke="none" d="M 5.888 294.506 C 2.92 302.551 -0.048 310.596 -3.017 318.641 C -3.583 318.689 -4.149 318.737 -4.715 318.785 C -13.549 297.801 -22.383 276.818 -31.217 255.835 C -31.595 255.848 -31.972 255.861 -32.349 255.873 C -32.445 257.34 -32.622 258.807 -32.625 260.275 C -32.646 273.433 -32.638 286.592 -32.637 299.75 C -32.637 312.193 -32.637 312.193 -22.275 318.105 C -29.573 318.105 -36.14 318.105 -42.706 318.105 C -34.515 315.241 -35.29 308.313 -35.238 301.985 C -35.112 286.829 -35.155 271.671 -35.212 256.513 C -35.242 248.389 -35.566 248.034 -43.807 245.317 C -41.962 244.912 -40.999 244.527 -40.033 244.518 C -34.204 244.461 -28.345 244.84 -22.553 244.372 C -18.387 244.036 -16.759 245.808 -15.351 249.316 C -9.343 264.291 -3.093 279.17 3.738 294.276 C 4.901 294.482 5.395 294.494 5.888 294.506 Z"/>
  <path fill="#3EADB0" opacity="1.000000" stroke="none" d="M 327.864 273.503 C 331.059 264.759 334.211 256 337.504 247.293 C 337.908 246.225 339.045 244.671 339.879 244.648 C 347.246 244.44 354.621 244.527 362.127 245.711 C 361.338 245.98 360.562 246.431 359.759 246.486 C 356.217 246.729 354.743 248.813 354.738 252.093 C 354.712 271.748 354.761 291.403 354.711 311.058 C 354.698 316.15 358.703 316.299 362.032 317.944 C 351.261 317.944 340.491 317.944 329.72 317.944 C 329.668 317.707 329.616 317.47 329.565 317.232 C 330.223 316.988 330.885 316.526 331.539 316.536 C 336.083 316.603 337.781 314.008 337.786 309.906 C 337.812 292.098 337.797 274.29 336.962 256.197 C 334.762 261.797 332.562 267.396 329.791 273.256 C 328.769 273.512 328.316 273.507 327.864 273.503 Z"/>
  <path fill="#3EADB0" opacity="1.000000" stroke="none" d="M 11.864 273.503 C 15.059 264.759 18.211 256 21.504 247.293 C 21.908 246.225 23.045 244.671 23.879 244.648 C 31.246 244.44 38.621 244.527 46.127 245.711 C 45.338 245.98 44.562 246.431 43.759 246.486 C 40.217 246.729 38.743 248.813 38.738 252.093 C 38.712 271.748 38.738 291.403 38.727 311.058 C 38.724 316.015 42.425 316.62 46.58 316.737 C 46.397 317.139 46.213 317.542 46.03 317.944 C 35.26 317.944 24.49 317.944 13.72 317.944 C 13.668 317.707 13.616 317.47 13.565 317.232 C 14.223 316.988 14.885 316.526 15.539 316.536 C 20.083 316.603 21.78 314.008 21.786 309.906 C 21.812 292.098 21.797 274.29 20.962 256.197 C 18.762 261.797 16.562 267.396 13.791 273.256 C 12.769 273.512 12.316 273.507 11.864 273.503 Z"/>
  <path fill="#3EADB0" opacity="1.000000" stroke="none" d="M 706.693 306.355 C 706.784 314.473 706.784 314.473 715.351 318.021 C 703.601 318.021 693.019 318.021 682.415 318.021 C 682.443 317.708 682.397 317.168 682.507 317.134 C 689.873 314.842 689.889 314.845 689.894 306.812 C 689.904 290.007 689.902 273.201 689.895 256.396 C 689.891 248.019 689.872 248.008 682.299 245.087 C 692.907 245.087 703.516 245.087 714.577 245.087 C 713.992 245.712 713.697 246.296 713.411 246.292 C 707.729 246.212 706.618 249.632 706.65 254.462 C 706.764 271.6 706.693 288.739 706.693 306.355 Z"/>
  <path fill="#3EADB0" opacity="1.000000" stroke="none" d="M 411.982 251.217 C 411.881 270.791 411.953 289.933 411.73 309.072 C 411.666 314.625 414.388 316.82 419.39 317.899 C 408.783 317.899 398.176 317.899 387.569 317.899 C 387.508 317.704 387.448 317.508 387.388 317.313 C 388.172 317.037 388.944 316.572 389.744 316.518 C 393.212 316.287 394.881 314.387 394.886 311.039 C 394.917 291.399 394.838 271.759 394.954 252.119 C 394.986 246.818 390.789 246.765 387.522 244.946 C 398.104 244.946 408.687 244.946 418.744 244.946 C 416.661 246.761 414.352 248.772 411.982 251.217 Z"/>
  <path fill="#56B7BA" opacity="1.000000" stroke="none" d="M 11.635 273.77 C 12.316 273.507 12.769 273.512 13.561 273.521 C 11.39 280.353 8.88 287.181 6.129 294.258 C 5.395 294.494 4.901 294.482 4.037 294.441 C 6.247 287.621 8.826 280.829 11.635 273.77 Z"/>
  <path fill="#56B7BA" opacity="1.000000" stroke="none" d="M 327.635 273.77 C 328.316 273.507 328.769 273.512 329.561 273.521 C 327.39 280.353 324.88 287.181 322.129 294.258 C 321.395 294.494 320.901 294.482 320.037 294.441 C 322.247 287.621 324.826 280.829 327.635 273.77 Z"/>
</svg>